<?xml version="1.0" encoding="UTF-8" standalone="no"?>
<!DOCTYPE svg PUBLIC "-//W3C//DTD SVG 1.1//EN"
 "http://www.w3.org/Graphics/SVG/1.1/DTD/svg11.dtd">
<!-- Generated by graphviz version 2.39.20160226.1245 (20160226.1245)
 -->
<!-- Title: %3 Pages: 1 -->
<svg width="1244pt" height="2716pt"
 viewBox="0.00 0.00 1244.29 2716.00" xmlns="http://www.w3.org/2000/svg" xmlns:xlink="http://www.w3.org/1999/xlink">
<g id="graph0" class="graph" transform="scale(1 1) rotate(0) translate(4 2712)">
<title>%3</title>
<polygon fill="white" stroke="transparent" points="-4,4 -4,-2712 1240.29,-2712 1240.29,4 -4,4"/>
<!-- unhappy -->
<g id="node1" class="node">
<title>unhappy</title>
<path fill="none" stroke="black" d="M362.522,-2708C362.522,-2708 248.927,-2708 248.927,-2708 242.927,-2708 236.927,-2702 236.927,-2696 236.927,-2696 236.927,-2684 236.927,-2684 236.927,-2678 242.927,-2672 248.927,-2672 248.927,-2672 362.522,-2672 362.522,-2672 368.522,-2672 374.522,-2678 374.522,-2684 374.522,-2684 374.522,-2696 374.522,-2696 374.522,-2702 368.522,-2708 362.522,-2708"/>
<text text-anchor="middle" x="305.725" y="-2685.8" font-family="Times,serif" font-size="14.00">React makes you sad.</text>
</g>
<!-- are_you_using_react_boilerplates -->
<g id="node2" class="node">
<title>are_you_using_react_boilerplates</title>
<polygon fill="none" stroke="black" points="305.725,-2635 126.644,-2585 305.725,-2535 484.805,-2585 305.725,-2635"/>
<text text-anchor="middle" x="305.725" y="-2594.8" font-family="Times,serif" font-size="14.00">Are you learning</text>
<text text-anchor="middle" x="305.725" y="-2580.8" font-family="Times,serif" font-size="14.00"> &#160;&#160;&#160;React by copying from the</text>
<text text-anchor="middle" x="305.725" y="-2566.8" font-family="Times,serif" font-size="14.00"> &#160;&#160;&#160;boilerplate projects?</text>
</g>
<!-- unhappy&#45;&gt;are_you_using_react_boilerplates -->
<g id="edge1" class="edge">
<title>unhappy&#45;&gt;are_you_using_react_boilerplates</title>
<path fill="none" stroke="black" d="M305.725,-2671.71C305.725,-2664.12 305.725,-2654.85 305.725,-2645.22"/>
<polygon fill="black" stroke="black" points="309.225,-2645.11 305.725,-2635.11 302.225,-2645.11 309.225,-2645.11"/>
</g>
<!-- boilerplates_dont_teach -->
<g id="node3" class="node">
<title>boilerplates_dont_teach</title>
<polygon fill="none" stroke="black" points="297.674,-2485 -0.224949,-2485 -0.224949,-2267 297.674,-2267 297.674,-2485"/>
<text text-anchor="middle" x="148.725" y="-2469.8" font-family="Times,serif" font-size="14.00">Learning React by copying boilerplates</text>
<text text-anchor="middle" x="148.725" y="-2455.8" font-family="Times,serif" font-size="14.00"> &#160;&#160;&#160;is like learning to cook by eating food in</text>
<text text-anchor="middle" x="148.725" y="-2441.8" font-family="Times,serif" font-size="14.00"> &#160;&#160;&#160;fancy restaurants. It doesn’t work. You need</text>
<text text-anchor="middle" x="148.725" y="-2427.8" font-family="Times,serif" font-size="14.00"> &#160;&#160;&#160;to start with basics and ignore the fear of</text>
<text text-anchor="middle" x="148.725" y="-2413.8" font-family="Times,serif" font-size="14.00"> &#160;&#160;&#160;missing out. It’s unfounded. People create</text>
<text text-anchor="middle" x="148.725" y="-2399.8" font-family="Times,serif" font-size="14.00"> &#160;&#160;&#160;boilerplates to show off what they built</text>
<text text-anchor="middle" x="148.725" y="-2385.8" font-family="Times,serif" font-size="14.00"> &#160;&#160;&#160;or learned, not to help you learn. They are</text>
<text text-anchor="middle" x="148.725" y="-2371.8" font-family="Times,serif" font-size="14.00"> &#160;&#160;&#160;created by and for power users, and are often</text>
<text text-anchor="middle" x="148.725" y="-2357.8" font-family="Times,serif" font-size="14.00"> &#160;&#160;&#160;way more experimental than they care to admit.</text>
<text text-anchor="middle" x="148.725" y="-2343.8" font-family="Times,serif" font-size="14.00"> &#160;&#160;&#160;Boilerplates compete for attention which leads</text>
<text text-anchor="middle" x="148.725" y="-2329.8" font-family="Times,serif" font-size="14.00"> &#160;&#160;&#160;to more bloat. If you’re in it for React, learn</text>
<text text-anchor="middle" x="148.725" y="-2315.8" font-family="Times,serif" font-size="14.00"> &#160;&#160;&#160;it in the order Pete Hunt described in his guide:</text>
<text text-anchor="middle" x="148.725" y="-2301.8" font-family="Times,serif" font-size="14.00"> &#160;&#160;&#160;https://github.com/petehunt/react&#45;howto.</text>
<text text-anchor="middle" x="148.725" y="-2287.8" font-family="Times,serif" font-size="14.00"> &#160;&#160;&#160;Look at boilerplates no sooner than you can</text>
<text text-anchor="middle" x="148.725" y="-2273.8" font-family="Times,serif" font-size="14.00"> &#160;&#160;&#160;create your own.</text>
</g>
<!-- are_you_using_react_boilerplates&#45;&gt;boilerplates_dont_teach -->
<g id="edge2" class="edge">
<title>are_you_using_react_boilerplates&#45;&gt;boilerplates_dont_teach</title>
<path fill="none" stroke="black" d="M274.519,-2543.46C263.429,-2528.7 250.332,-2511.26 236.851,-2493.31"/>
<polygon fill="black" stroke="black" points="239.44,-2490.93 230.635,-2485.04 233.843,-2495.14 239.44,-2490.93"/>
<text text-anchor="middle" x="260.056" y="-2505.8" font-family="Times,serif" font-size="14.00">yes</text>
</g>
<!-- steal_from_boilerplates -->
<g id="node4" class="node">
<title>steal_from_boilerplates</title>
<polygon fill="none" stroke="black" points="610.043,-2450 315.406,-2450 315.406,-2302 610.043,-2302 610.043,-2450"/>
<text text-anchor="middle" x="462.725" y="-2434.8" font-family="Times,serif" font-size="14.00">While boilerplates are not a good</text>
<text text-anchor="middle" x="462.725" y="-2420.8" font-family="Times,serif" font-size="14.00"> &#160;&#160;&#160;way to learn the technologies they combine,</text>
<text text-anchor="middle" x="462.725" y="-2406.8" font-family="Times,serif" font-size="14.00"> &#160;&#160;&#160;they are useful to see how these technologies</text>
<text text-anchor="middle" x="462.725" y="-2392.8" font-family="Times,serif" font-size="14.00"> &#160;&#160;&#160;can be tied together *after* you’re comfortable</text>
<text text-anchor="middle" x="462.725" y="-2378.8" font-family="Times,serif" font-size="14.00"> &#160;&#160;&#160;with each of them independently. It’s a great</text>
<text text-anchor="middle" x="462.725" y="-2364.8" font-family="Times,serif" font-size="14.00"> &#160;&#160;&#160;way to discover new technologies but you</text>
<text text-anchor="middle" x="462.725" y="-2350.8" font-family="Times,serif" font-size="14.00"> &#160;&#160;&#160;shouldn’t feel obligated to use them at all.</text>
<text text-anchor="middle" x="462.725" y="-2336.8" font-family="Times,serif" font-size="14.00"> &#160;&#160;&#160;Don’t give up on boilerplates completely.</text>
<text text-anchor="middle" x="462.725" y="-2322.8" font-family="Times,serif" font-size="14.00"> &#160;&#160;&#160;Just keep in mind that a boilerplate is</text>
<text text-anchor="middle" x="462.725" y="-2308.8" font-family="Times,serif" font-size="14.00"> &#160;&#160;&#160;a bag of tricks, not a solid base for your app.</text>
</g>
<!-- are_you_using_react_boilerplates&#45;&gt;steal_from_boilerplates -->
<g id="edge3" class="edge">
<title>are_you_using_react_boilerplates&#45;&gt;steal_from_boilerplates</title>
<path fill="none" stroke="black" d="M336.93,-2543.46C355.24,-2519.08 379.023,-2487.42 400.973,-2458.2"/>
<polygon fill="black" stroke="black" points="403.902,-2460.13 407.11,-2450.03 398.305,-2455.93 403.902,-2460.13"/>
<text text-anchor="middle" x="372.725" y="-2505.8" font-family="Times,serif" font-size="14.00">no</text>
</g>
<!-- are_you_using_flux -->
<g id="node5" class="node">
<title>are_you_using_flux</title>
<polygon fill="none" stroke="black" points="340.725,-2230 234.31,-2180 340.725,-2130 447.139,-2180 340.725,-2230"/>
<text text-anchor="middle" x="340.725" y="-2189.8" font-family="Times,serif" font-size="14.00">Are you using</text>
<text text-anchor="middle" x="340.725" y="-2175.8" font-family="Times,serif" font-size="14.00"> &#160;&#160;&#160;a Flux library</text>
<text text-anchor="middle" x="340.725" y="-2161.8" font-family="Times,serif" font-size="14.00"> &#160;&#160;&#160;(or Redux)?</text>
</g>
<!-- boilerplates_dont_teach&#45;&gt;are_you_using_flux -->
<g id="edge4" class="edge">
<title>boilerplates_dont_teach&#45;&gt;are_you_using_flux</title>
<path fill="none" stroke="black" d="M255.672,-2266.82C271.365,-2250.8 286.663,-2235.19 299.858,-2221.72"/>
<polygon fill="black" stroke="black" points="302.464,-2224.06 306.961,-2214.47 297.463,-2219.16 302.464,-2224.06"/>
</g>
<!-- steal_from_boilerplates&#45;&gt;are_you_using_flux -->
<g id="edge5" class="edge">
<title>steal_from_boilerplates&#45;&gt;are_you_using_flux</title>
<path fill="none" stroke="black" d="M416.602,-2301.9C401.054,-2276.92 384.133,-2249.74 370.224,-2227.39"/>
<polygon fill="black" stroke="black" points="373.11,-2225.41 364.854,-2218.77 367.167,-2229.1 373.11,-2225.41"/>
</g>
<!-- is_too_much_flux -->
<g id="node6" class="node">
<title>is_too_much_flux</title>
<polygon fill="none" stroke="black" points="239.725,-2066 94.2656,-2016 239.725,-1966 385.184,-2016 239.725,-2066"/>
<text text-anchor="middle" x="239.725" y="-2025.8" font-family="Times,serif" font-size="14.00">Does it add</text>
<text text-anchor="middle" x="239.725" y="-2011.8" font-family="Times,serif" font-size="14.00"> &#160;&#160;&#160;a lot of boilerplate</text>
<text text-anchor="middle" x="239.725" y="-1997.8" font-family="Times,serif" font-size="14.00"> &#160;&#160;&#160;for no obvious gain?</text>
</g>
<!-- are_you_using_flux&#45;&gt;is_too_much_flux -->
<g id="edge6" class="edge">
<title>are_you_using_flux&#45;&gt;is_too_much_flux</title>
<path fill="none" stroke="black" d="M316.789,-2141.13C302.969,-2118.69 285.439,-2090.23 270.591,-2066.12"/>
<polygon fill="black" stroke="black" points="273.478,-2064.13 265.254,-2057.45 267.518,-2067.8 273.478,-2064.13"/>
<text text-anchor="middle" x="306.056" y="-2100.8" font-family="Times,serif" font-size="14.00">yes</text>
</g>
<!-- is_not_enough_flux -->
<g id="node7" class="node">
<title>is_not_enough_flux</title>
<polygon fill="none" stroke="black" points="602.725,-2080 403.523,-2016 602.725,-1952 801.926,-2016 602.725,-2080"/>
<text text-anchor="middle" x="602.725" y="-2032.8" font-family="Times,serif" font-size="14.00">Do you a few</text>
<text text-anchor="middle" x="602.725" y="-2018.8" font-family="Times,serif" font-size="14.00"> &#160;&#160;&#160;painfully bloated stateful</text>
<text text-anchor="middle" x="602.725" y="-2004.8" font-family="Times,serif" font-size="14.00"> &#160;&#160;&#160;components at the top</text>
<text text-anchor="middle" x="602.725" y="-1990.8" font-family="Times,serif" font-size="14.00"> &#160;&#160;&#160;of your component hierarchy?</text>
</g>
<!-- are_you_using_flux&#45;&gt;is_not_enough_flux -->
<g id="edge7" class="edge">
<title>are_you_using_flux&#45;&gt;is_not_enough_flux</title>
<path fill="none" stroke="black" d="M386.362,-2151.43C424.927,-2127.29 480.975,-2092.21 526.362,-2063.8"/>
<polygon fill="black" stroke="black" points="528.378,-2066.67 534.998,-2058.39 524.664,-2060.73 528.378,-2066.67"/>
<text text-anchor="middle" x="478.725" y="-2100.8" font-family="Times,serif" font-size="14.00">no</text>
</g>
<!-- remove_flux -->
<g id="node8" class="node">
<title>remove_flux</title>
<polygon fill="none" stroke="black" points="371.053,-1902 116.396,-1902 116.396,-1838 371.053,-1838 371.053,-1902"/>
<text text-anchor="middle" x="243.725" y="-1886.8" font-family="Times,serif" font-size="14.00">Remove the Flux library.</text>
<text text-anchor="middle" x="243.725" y="-1872.8" font-family="Times,serif" font-size="14.00"> &#160;&#160;&#160;Get a good feel for structuring</text>
<text text-anchor="middle" x="243.725" y="-1858.8" font-family="Times,serif" font-size="14.00"> &#160;&#160;&#160;apps in vanilla React by reading</text>
<text text-anchor="middle" x="243.725" y="-1844.8" font-family="Times,serif" font-size="14.00"> &#160;&#160;&#160;“Thinking in React” in the official docs.</text>
</g>
<!-- is_too_much_flux&#45;&gt;remove_flux -->
<g id="edge8" class="edge">
<title>is_too_much_flux&#45;&gt;remove_flux</title>
<path fill="none" stroke="black" d="M241.09,-1966.16C241.57,-1948.65 242.104,-1929.15 242.565,-1912.32"/>
<polygon fill="black" stroke="black" points="246.067,-1912.31 242.842,-1902.22 239.069,-1912.12 246.067,-1912.31"/>
<text text-anchor="middle" x="252.056" y="-1922.8" font-family="Times,serif" font-size="14.00">yes</text>
</g>
<!-- are_you_using_bundler -->
<g id="node9" class="node">
<title>are_you_using_bundler</title>
<polygon fill="none" stroke="black" points="431.725,-1801 240.758,-1751 431.725,-1701 622.692,-1751 431.725,-1801"/>
<text text-anchor="middle" x="431.725" y="-1760.8" font-family="Times,serif" font-size="14.00">Are you using</text>
<text text-anchor="middle" x="431.725" y="-1746.8" font-family="Times,serif" font-size="14.00"> &#160;&#160;&#160;a JavaScript bundler</text>
<text text-anchor="middle" x="431.725" y="-1732.8" font-family="Times,serif" font-size="14.00"> &#160;&#160;&#160;(e.g. Webpack, Browserify)?</text>
</g>
<!-- is_too_much_flux&#45;&gt;are_you_using_bundler -->
<g id="edge9" class="edge">
<title>is_too_much_flux&#45;&gt;are_you_using_bundler</title>
<path fill="none" stroke="black" d="M292.156,-1983.91C321.483,-1963.62 356.667,-1935.02 379.725,-1902 399.19,-1874.12 411.939,-1838.3 419.94,-1808.54"/>
<polygon fill="black" stroke="black" points="423.369,-1809.26 422.474,-1798.71 416.59,-1807.52 423.369,-1809.26"/>
<text text-anchor="middle" x="417.725" y="-1865.8" font-family="Times,serif" font-size="14.00">no</text>
</g>
<!-- is_not_enough_flux&#45;&gt;are_you_using_bundler -->
<g id="edge11" class="edge">
<title>is_not_enough_flux&#45;&gt;are_you_using_bundler</title>
<path fill="none" stroke="black" d="M534.725,-1973.53C509.524,-1954.56 482.924,-1930.11 465.725,-1902 448.913,-1874.53 440.39,-1839.67 436.081,-1810.38"/>
<polygon fill="black" stroke="black" points="439.523,-1809.71 434.725,-1800.27 432.585,-1810.65 439.523,-1809.71"/>
<text text-anchor="middle" x="472.725" y="-1865.8" font-family="Times,serif" font-size="14.00">no</text>
</g>
<!-- add_flux -->
<g id="node10" class="node">
<title>add_flux</title>
<polygon fill="none" stroke="black" points="711.164,-1902 488.286,-1902 488.286,-1838 711.164,-1838 711.164,-1902"/>
<text text-anchor="middle" x="599.725" y="-1886.8" font-family="Times,serif" font-size="14.00">Consider adding a Flux library.</text>
<text text-anchor="middle" x="599.725" y="-1872.8" font-family="Times,serif" font-size="14.00"> &#160;&#160;&#160;It can help externalize the state</text>
<text text-anchor="middle" x="599.725" y="-1858.8" font-family="Times,serif" font-size="14.00"> &#160;&#160;&#160;shared between many components</text>
<text text-anchor="middle" x="599.725" y="-1844.8" font-family="Times,serif" font-size="14.00"> &#160;&#160;&#160;and update it consistently.</text>
</g>
<!-- is_not_enough_flux&#45;&gt;add_flux -->
<g id="edge10" class="edge">
<title>is_not_enough_flux&#45;&gt;add_flux</title>
<path fill="none" stroke="black" d="M601.417,-1952.39C601.139,-1938.82 600.851,-1924.81 600.593,-1912.28"/>
<polygon fill="black" stroke="black" points="604.09,-1912.07 600.385,-1902.14 597.091,-1912.21 604.09,-1912.07"/>
<text text-anchor="middle" x="610.056" y="-1922.8" font-family="Times,serif" font-size="14.00">yes</text>
</g>
<!-- remove_flux&#45;&gt;are_you_using_bundler -->
<g id="edge13" class="edge">
<title>remove_flux&#45;&gt;are_you_using_bundler</title>
<path fill="none" stroke="black" d="M294.6,-1837.8C316.876,-1823.7 343.276,-1806.99 366.936,-1792.01"/>
<polygon fill="black" stroke="black" points="368.938,-1794.89 375.515,-1786.58 365.194,-1788.97 368.938,-1794.89"/>
</g>
<!-- are_you_working_on_production_app_with_bundler -->
<g id="node11" class="node">
<title>are_you_working_on_production_app_with_bundler</title>
<polygon fill="none" stroke="black" points="342.725,-1651 195.131,-1615 342.725,-1579 490.319,-1615 342.725,-1651"/>
<text text-anchor="middle" x="342.725" y="-1617.8" font-family="Times,serif" font-size="14.00">Are you working</text>
<text text-anchor="middle" x="342.725" y="-1603.8" font-family="Times,serif" font-size="14.00"> &#160;&#160;&#160;on a production app?</text>
</g>
<!-- are_you_using_bundler&#45;&gt;are_you_working_on_production_app_with_bundler -->
<g id="edge14" class="edge">
<title>are_you_using_bundler&#45;&gt;are_you_working_on_production_app_with_bundler</title>
<path fill="none" stroke="black" d="M403.564,-1707.97C392.376,-1690.87 379.587,-1671.33 368.631,-1654.59"/>
<polygon fill="black" stroke="black" points="371.492,-1652.57 363.087,-1646.12 365.634,-1656.4 371.492,-1652.57"/>
<text text-anchor="middle" x="397.056" y="-1671.8" font-family="Times,serif" font-size="14.00">yes</text>
</g>
<!-- are_you_working_on_production_app_without_bundler -->
<g id="node12" class="node">
<title>are_you_working_on_production_app_without_bundler</title>
<polygon fill="none" stroke="black" points="656.725,-1651 509.131,-1615 656.725,-1579 804.319,-1615 656.725,-1651"/>
<text text-anchor="middle" x="656.725" y="-1617.8" font-family="Times,serif" font-size="14.00">Are you working</text>
<text text-anchor="middle" x="656.725" y="-1603.8" font-family="Times,serif" font-size="14.00"> &#160;&#160;&#160;on a production app?</text>
</g>
<!-- are_you_using_bundler&#45;&gt;are_you_working_on_production_app_without_bundler -->
<g id="edge15" class="edge">
<title>are_you_using_bundler&#45;&gt;are_you_working_on_production_app_without_bundler</title>
<path fill="none" stroke="black" d="M489.668,-1715.98C525.406,-1694.37 570.836,-1666.91 605.296,-1646.09"/>
<polygon fill="black" stroke="black" points="607.51,-1648.84 614.257,-1640.67 603.889,-1642.85 607.51,-1648.84"/>
<text text-anchor="middle" x="571.725" y="-1671.8" font-family="Times,serif" font-size="14.00">no</text>
</g>
<!-- add_flux&#45;&gt;are_you_using_bundler -->
<g id="edge12" class="edge">
<title>add_flux&#45;&gt;are_you_using_bundler</title>
<path fill="none" stroke="black" d="M554.261,-1837.8C535.045,-1824.18 512.392,-1808.14 491.825,-1793.57"/>
<polygon fill="black" stroke="black" points="493.64,-1790.57 483.457,-1787.64 489.594,-1796.28 493.64,-1790.57"/>
</g>
<!-- do_you_know_es2015 -->
<g id="node13" class="node">
<title>do_you_know_es2015</title>
<polygon fill="none" stroke="black" points="575.725,-1386 348.496,-1336 575.725,-1286 802.953,-1336 575.725,-1386"/>
<text text-anchor="middle" x="575.725" y="-1345.8" font-family="Times,serif" font-size="14.00">Do you feel</text>
<text text-anchor="middle" x="575.725" y="-1331.8" font-family="Times,serif" font-size="14.00"> &#160;&#160;&#160;comfortable using ES2015 features</text>
<text text-anchor="middle" x="575.725" y="-1317.8" font-family="Times,serif" font-size="14.00"> &#160;&#160;&#160;(e.g. classes and fat arrows)?</text>
</g>
<!-- are_you_working_on_production_app_with_bundler&#45;&gt;do_you_know_es2015 -->
<g id="edge16" class="edge">
<title>are_you_working_on_production_app_with_bundler&#45;&gt;do_you_know_es2015</title>
<path fill="none" stroke="black" d="M307.127,-1587.6C290.338,-1572.39 272.05,-1551.93 263.062,-1529 245.869,-1485.14 234.563,-1460.51 263.062,-1423 284.507,-1394.77 360.41,-1373.28 432.055,-1358.71"/>
<polygon fill="black" stroke="black" points="433.007,-1362.09 442.13,-1356.7 431.638,-1355.23 433.007,-1362.09"/>
<text text-anchor="middle" x="273.056" y="-1471.8" font-family="Times,serif" font-size="14.00">yes</text>
</g>
<!-- remove_bundler -->
<g id="node14" class="node">
<title>remove_bundler</title>
<polygon fill="none" stroke="black" points="593.143,-1529 290.307,-1529 290.307,-1423 593.143,-1423 593.143,-1529"/>
<text text-anchor="middle" x="441.725" y="-1513.8" font-family="Times,serif" font-size="14.00">There is no need for a bundler</text>
<text text-anchor="middle" x="441.725" y="-1499.8" font-family="Times,serif" font-size="14.00"> &#160;&#160;&#160;if you are just learning React.</text>
<text text-anchor="middle" x="441.725" y="-1485.8" font-family="Times,serif" font-size="14.00"> &#160;&#160;&#160;Copy https://github.com/jarsbe/react&#45;simple</text>
<text text-anchor="middle" x="441.725" y="-1471.8" font-family="Times,serif" font-size="14.00"> &#160;&#160;&#160;and start hacking with no build step.</text>
<text text-anchor="middle" x="441.725" y="-1457.8" font-family="Times,serif" font-size="14.00"> &#160;&#160;&#160;Use &lt;script&gt; tags until you are comfortable</text>
<text text-anchor="middle" x="441.725" y="-1443.8" font-family="Times,serif" font-size="14.00"> &#160;&#160;&#160;with React and want to learn more about module</text>
<text text-anchor="middle" x="441.725" y="-1429.8" font-family="Times,serif" font-size="14.00"> &#160;&#160;&#160;systems and different bundlers.</text>
</g>
<!-- are_you_working_on_production_app_with_bundler&#45;&gt;remove_bundler -->
<g id="edge17" class="edge">
<title>are_you_working_on_production_app_with_bundler&#45;&gt;remove_bundler</title>
<path fill="none" stroke="black" d="M364.696,-1584.15C374.495,-1570.39 386.404,-1553.67 397.9,-1537.53"/>
<polygon fill="black" stroke="black" points="400.909,-1539.34 403.86,-1529.16 395.208,-1535.28 400.909,-1539.34"/>
<text text-anchor="middle" x="396.725" y="-1549.8" font-family="Times,serif" font-size="14.00">no</text>
</g>
<!-- are_you_working_on_production_app_without_bundler&#45;&gt;do_you_know_es2015 -->
<g id="edge19" class="edge">
<title>are_you_working_on_production_app_without_bundler&#45;&gt;do_you_know_es2015</title>
<path fill="none" stroke="black" d="M647.105,-1580.98C636.217,-1542.57 617.891,-1478.24 601.725,-1423 598.839,-1413.14 595.738,-1402.66 592.717,-1392.52"/>
<polygon fill="black" stroke="black" points="596.069,-1391.51 589.856,-1382.93 589.361,-1393.51 596.069,-1391.51"/>
<text text-anchor="middle" x="638.725" y="-1471.8" font-family="Times,serif" font-size="14.00">no</text>
</g>
<!-- add_bundler -->
<g id="node15" class="node">
<title>add_bundler</title>
<polygon fill="none" stroke="black" points="919.175,-1529 660.274,-1529 660.274,-1423 919.175,-1423 919.175,-1529"/>
<text text-anchor="middle" x="789.725" y="-1513.8" font-family="Times,serif" font-size="14.00">Add a bundler as a build step</text>
<text text-anchor="middle" x="789.725" y="-1499.8" font-family="Times,serif" font-size="14.00"> &#160;&#160;&#160;to keep dependencies manageable</text>
<text text-anchor="middle" x="789.725" y="-1485.8" font-family="Times,serif" font-size="14.00"> &#160;&#160;&#160;and serve the JavaScript code efficiently.</text>
<text text-anchor="middle" x="789.725" y="-1471.8" font-family="Times,serif" font-size="14.00"> &#160;&#160;&#160;Use Google Page Speed insights tool</text>
<text text-anchor="middle" x="789.725" y="-1457.8" font-family="Times,serif" font-size="14.00"> &#160;&#160;&#160;to gauge how well you are doing.</text>
<text text-anchor="middle" x="789.725" y="-1443.8" font-family="Times,serif" font-size="14.00"> &#160;&#160;&#160;Remember to minify and envify</text>
<text text-anchor="middle" x="789.725" y="-1429.8" font-family="Times,serif" font-size="14.00"> &#160;&#160;&#160;your code.</text>
</g>
<!-- are_you_working_on_production_app_without_bundler&#45;&gt;add_bundler -->
<g id="edge18" class="edge">
<title>are_you_working_on_production_app_without_bundler&#45;&gt;add_bundler</title>
<path fill="none" stroke="black" d="M684.93,-1585.52C698.675,-1571.16 715.73,-1553.33 732.061,-1536.26"/>
<polygon fill="black" stroke="black" points="734.62,-1538.65 739.004,-1529.01 729.562,-1533.81 734.62,-1538.65"/>
<text text-anchor="middle" x="728.056" y="-1549.8" font-family="Times,serif" font-size="14.00">yes</text>
</g>
<!-- use_es5 -->
<g id="node16" class="node">
<title>use_es5</title>
<polygon fill="none" stroke="black" points="727.318,-1090 388.131,-1090 388.131,-942 727.318,-942 727.318,-1090"/>
<text text-anchor="middle" x="557.725" y="-1074.8" font-family="Times,serif" font-size="14.00">Don’t use ES2015 yet.</text>
<text text-anchor="middle" x="557.725" y="-1060.8" font-family="Times,serif" font-size="14.00"> &#160;&#160;&#160;You don’t need it to learn React.</text>
<text text-anchor="middle" x="557.725" y="-1046.8" font-family="Times,serif" font-size="14.00"> &#160;&#160;&#160;Third&#45;party libraries will often use</text>
<text text-anchor="middle" x="557.725" y="-1032.8" font-family="Times,serif" font-size="14.00"> &#160;&#160;&#160;ES2015 syntax in their documentation but</text>
<text text-anchor="middle" x="557.725" y="-1018.8" font-family="Times,serif" font-size="14.00"> &#160;&#160;&#160;you don’t need third&#45;party libraries when</text>
<text text-anchor="middle" x="557.725" y="-1004.8" font-family="Times,serif" font-size="14.00"> &#160;&#160;&#160;you are just learning React itself.</text>
<text text-anchor="middle" x="557.725" y="-990.8" font-family="Times,serif" font-size="14.00"> &#160;&#160;&#160;When you feel like updating your JavaScript</text>
<text text-anchor="middle" x="557.725" y="-976.8" font-family="Times,serif" font-size="14.00"> &#160;&#160;&#160;knowledge, https://leanpub.com/understandinges6/read</text>
<text text-anchor="middle" x="557.725" y="-962.8" font-family="Times,serif" font-size="14.00"> &#160;&#160;&#160;is an amazing guide. Use http://babeljs.io/repl</text>
<text text-anchor="middle" x="557.725" y="-948.8" font-family="Times,serif" font-size="14.00"> &#160;&#160;&#160;to verify your assumptions.</text>
</g>
<!-- do_you_know_es2015&#45;&gt;use_es5 -->
<g id="edge22" class="edge">
<title>do_you_know_es2015&#45;&gt;use_es5</title>
<path fill="none" stroke="black" d="M572.932,-1286.35C570.141,-1236.73 565.797,-1159.51 562.465,-1100.28"/>
<polygon fill="black" stroke="black" points="565.954,-1099.97 561.898,-1090.18 558.965,-1100.37 565.954,-1099.97"/>
<text text-anchor="middle" x="578.725" y="-1256.8" font-family="Times,serif" font-size="14.00">no</text>
</g>
<!-- are_you_using_dangerous_features -->
<g id="node17" class="node">
<title>are_you_using_dangerous_features</title>
<polygon fill="none" stroke="black" points="791.725,-1236 585.92,-1172 791.725,-1108 997.529,-1172 791.725,-1236"/>
<text text-anchor="middle" x="791.725" y="-1188.8" font-family="Times,serif" font-size="14.00">Are you using</text>
<text text-anchor="middle" x="791.725" y="-1174.8" font-family="Times,serif" font-size="14.00"> &#160;&#160;&#160;experimental language features</text>
<text text-anchor="middle" x="791.725" y="-1160.8" font-family="Times,serif" font-size="14.00"> &#160;&#160;&#160;that didn’t make it into ES2015</text>
<text text-anchor="middle" x="791.725" y="-1146.8" font-family="Times,serif" font-size="14.00"> &#160;&#160;&#160;(e.g. decorators)?</text>
</g>
<!-- do_you_know_es2015&#45;&gt;are_you_using_dangerous_features -->
<g id="edge23" class="edge">
<title>do_you_know_es2015&#45;&gt;are_you_using_dangerous_features</title>
<path fill="none" stroke="black" d="M626.914,-1297.13C655.773,-1275.22 692.198,-1247.57 723.461,-1223.83"/>
<polygon fill="black" stroke="black" points="725.861,-1226.4 731.709,-1217.57 721.628,-1220.83 725.861,-1226.4"/>
<text text-anchor="middle" x="693.056" y="-1256.8" font-family="Times,serif" font-size="14.00">yes</text>
</g>
<!-- remove_bundler&#45;&gt;do_you_know_es2015 -->
<g id="edge21" class="edge">
<title>remove_bundler&#45;&gt;do_you_know_es2015</title>
<path fill="none" stroke="black" d="M492.767,-1422.67C504.649,-1410.26 517.242,-1397.1 528.931,-1384.89"/>
<polygon fill="black" stroke="black" points="531.691,-1387.07 536.077,-1377.42 526.634,-1382.23 531.691,-1387.07"/>
</g>
<!-- add_bundler&#45;&gt;do_you_know_es2015 -->
<g id="edge20" class="edge">
<title>add_bundler&#45;&gt;do_you_know_es2015</title>
<path fill="none" stroke="black" d="M708.515,-1422.87C686.38,-1408.39 662.679,-1392.89 641.516,-1379.04"/>
<polygon fill="black" stroke="black" points="643.208,-1375.97 632.924,-1373.42 639.376,-1381.82 643.208,-1375.97"/>
</g>
<!-- do_you_update_packages_asap -->
<g id="node18" class="node">
<title>do_you_update_packages_asap</title>
<polygon fill="none" stroke="black" points="774.725,-673 538.627,-623 774.725,-573 1010.82,-623 774.725,-673"/>
<text text-anchor="middle" x="774.725" y="-632.8" font-family="Times,serif" font-size="14.00">Do you update to new</text>
<text text-anchor="middle" x="774.725" y="-618.8" font-family="Times,serif" font-size="14.00"> &#160;&#160;&#160;major versions of your dependencies</text>
<text text-anchor="middle" x="774.725" y="-604.8" font-family="Times,serif" font-size="14.00"> &#160;&#160;&#160;as they come out?</text>
</g>
<!-- use_es5&#45;&gt;do_you_update_packages_asap -->
<g id="edge24" class="edge">
<title>use_es5&#45;&gt;do_you_update_packages_asap</title>
<path fill="none" stroke="black" d="M593.831,-941.799C626.982,-875.084 678.445,-774.964 728.725,-691 731.774,-685.908 735.048,-680.674 738.394,-675.477"/>
<polygon fill="black" stroke="black" points="741.523,-677.087 744.064,-666.801 735.663,-673.257 741.523,-677.087"/>
</g>
<!-- are_you_using_dangerous_features&#45;&gt;do_you_update_packages_asap -->
<g id="edge26" class="edge">
<title>are_you_using_dangerous_features&#45;&gt;do_you_update_packages_asap</title>
<path fill="none" stroke="black" d="M782.236,-1110.78C774.977,-1060.7 765.579,-987.962 761.725,-924 758.302,-867.214 759.592,-852.849 761.725,-796 763.147,-758.086 766.317,-715.596 769.171,-682.213"/>
<polygon fill="black" stroke="black" points="772.666,-682.426 770.044,-672.161 765.692,-681.821 772.666,-682.426"/>
<text text-anchor="middle" x="769.725" y="-766.8" font-family="Times,serif" font-size="14.00">no</text>
</g>
<!-- can_you_spend_days_on_your_tooling -->
<g id="node19" class="node">
<title>can_you_spend_days_on_your_tooling</title>
<polygon fill="none" stroke="black" points="1003.72,-924 771.086,-860 1003.72,-796 1236.36,-860 1003.72,-924"/>
<text text-anchor="middle" x="1003.72" y="-876.8" font-family="Times,serif" font-size="14.00">Can you spend days on</text>
<text text-anchor="middle" x="1003.72" y="-862.8" font-family="Times,serif" font-size="14.00"> &#160;&#160;&#160;fixing your tooling every few weeks</text>
<text text-anchor="middle" x="1003.72" y="-848.8" font-family="Times,serif" font-size="14.00"> &#160;&#160;&#160;due to bugs, incompatibilities,</text>
<text text-anchor="middle" x="1003.72" y="-834.8" font-family="Times,serif" font-size="14.00"> &#160;&#160;&#160;and standard changes?</text>
</g>
<!-- are_you_using_dangerous_features&#45;&gt;can_you_spend_days_on_your_tooling -->
<g id="edge25" class="edge">
<title>are_you_using_dangerous_features&#45;&gt;can_you_spend_days_on_your_tooling</title>
<path fill="none" stroke="black" d="M827.688,-1119.07C864.675,-1064.64 922.257,-979.896 961.413,-922.271"/>
<polygon fill="black" stroke="black" points="964.326,-924.21 967.051,-913.972 958.536,-920.276 964.326,-924.21"/>
<text text-anchor="middle" x="956.056" y="-1011.8" font-family="Times,serif" font-size="14.00">yes</text>
</g>
<!-- give_it_two_months -->
<g id="node21" class="node">
<title>give_it_two_months</title>
<polygon fill="none" stroke="black" points="852.46,-523 522.989,-523 522.989,-375 852.46,-375 852.46,-523"/>
<text text-anchor="middle" x="687.725" y="-507.8" font-family="Times,serif" font-size="14.00">Unless we are talking about React</text>
<text text-anchor="middle" x="687.725" y="-493.8" font-family="Times,serif" font-size="14.00"> &#160;&#160;&#160;which is tested heavily before every release,</text>
<text text-anchor="middle" x="687.725" y="-479.8" font-family="Times,serif" font-size="14.00"> &#160;&#160;&#160;consider slowing down rate of package updates.</text>
<text text-anchor="middle" x="687.725" y="-465.8" font-family="Times,serif" font-size="14.00"> &#160;&#160;&#160;You can try new versions of the dependencies but</text>
<text text-anchor="middle" x="687.725" y="-451.8" font-family="Times,serif" font-size="14.00"> &#160;&#160;&#160;it’s best to keep them in a branch for a couple of</text>
<text text-anchor="middle" x="687.725" y="-437.8" font-family="Times,serif" font-size="14.00"> &#160;&#160;&#160;months until the community finds and fixes the</text>
<text text-anchor="middle" x="687.725" y="-423.8" font-family="Times,serif" font-size="14.00"> &#160;&#160;&#160;most common issues. Don’t make decisions based on</text>
<text text-anchor="middle" x="687.725" y="-409.8" font-family="Times,serif" font-size="14.00"> &#160;&#160;&#160;the fear of missing out! When looking for older docs,</text>
<text text-anchor="middle" x="687.725" y="-395.8" font-family="Times,serif" font-size="14.00"> &#160;&#160;&#160;don’t forget to check tagged releases on GitHub, e.g.</text>
<text text-anchor="middle" x="687.725" y="-381.8" font-family="Times,serif" font-size="14.00"> &#160;&#160;&#160;https://github.com/reactjs/react&#45;router/tree/0.13.x/doc</text>
</g>
<!-- do_you_update_packages_asap&#45;&gt;give_it_two_months -->
<g id="edge30" class="edge">
<title>do_you_update_packages_asap&#45;&gt;give_it_two_months</title>
<path fill="none" stroke="black" d="M752.093,-577.738C745.107,-563.765 737.179,-547.91 729.334,-532.219"/>
<polygon fill="black" stroke="black" points="732.334,-530.393 724.732,-523.014 726.073,-533.524 732.334,-530.393"/>
<text text-anchor="middle" x="748.056" y="-543.8" font-family="Times,serif" font-size="14.00">yes</text>
</g>
<!-- consider_updating_react -->
<g id="node22" class="node">
<title>consider_updating_react</title>
<polygon fill="none" stroke="black" points="1121.44,-523 870.014,-523 870.014,-375 1121.44,-375 1121.44,-523"/>
<text text-anchor="middle" x="995.725" y="-507.8" font-family="Times,serif" font-size="14.00">This is a good call.</text>
<text text-anchor="middle" x="995.725" y="-493.8" font-family="Times,serif" font-size="14.00"> &#160;&#160;&#160;However we encourage you to</text>
<text text-anchor="middle" x="995.725" y="-479.8" font-family="Times,serif" font-size="14.00"> &#160;&#160;&#160;try (in a branch!) new versions of</text>
<text text-anchor="middle" x="995.725" y="-465.8" font-family="Times,serif" font-size="14.00"> &#160;&#160;&#160;React as soon as they come out.</text>
<text text-anchor="middle" x="995.725" y="-451.8" font-family="Times,serif" font-size="14.00"> &#160;&#160;&#160;Unlike many community packages,</text>
<text text-anchor="middle" x="995.725" y="-437.8" font-family="Times,serif" font-size="14.00"> &#160;&#160;&#160;they are tested heavily by Facebook.</text>
<text text-anchor="middle" x="995.725" y="-423.8" font-family="Times,serif" font-size="14.00"> &#160;&#160;&#160;Keep an eye on the release notes</text>
<text text-anchor="middle" x="995.725" y="-409.8" font-family="Times,serif" font-size="14.00"> &#160;&#160;&#160;as they link to the codemods that</text>
<text text-anchor="middle" x="995.725" y="-395.8" font-family="Times,serif" font-size="14.00"> &#160;&#160;&#160;automate parts of the migration process</text>
<text text-anchor="middle" x="995.725" y="-381.8" font-family="Times,serif" font-size="14.00"> &#160;&#160;&#160;for you.</text>
</g>
<!-- do_you_update_packages_asap&#45;&gt;consider_updating_react -->
<g id="edge31" class="edge">
<title>do_you_update_packages_asap&#45;&gt;consider_updating_react</title>
<path fill="none" stroke="black" d="M824.873,-583.517C845.239,-567.482 869.551,-548.34 893.357,-529.597"/>
<polygon fill="black" stroke="black" points="895.713,-532.197 901.405,-523.261 891.383,-526.697 895.713,-532.197"/>
<text text-anchor="middle" x="884.725" y="-543.8" font-family="Times,serif" font-size="14.00">no</text>
</g>
<!-- can_you_spend_days_on_your_tooling&#45;&gt;do_you_update_packages_asap -->
<g id="edge27" class="edge">
<title>can_you_spend_days_on_your_tooling&#45;&gt;do_you_update_packages_asap</title>
<path fill="none" stroke="black" d="M917.201,-819.729C884.526,-801.068 849.209,-776.256 824.062,-746 808.37,-727.118 797.187,-702.606 789.481,-680.439"/>
<polygon fill="black" stroke="black" points="792.749,-679.172 786.285,-670.777 786.103,-681.371 792.749,-679.172"/>
<text text-anchor="middle" x="833.056" y="-723.8" font-family="Times,serif" font-size="14.00">yes</text>
</g>
<!-- stick_to_es2015 -->
<g id="node20" class="node">
<title>stick_to_es2015</title>
<polygon fill="none" stroke="black" points="1063.4,-746 852.045,-746 852.045,-710 1063.4,-710 1063.4,-746"/>
<text text-anchor="middle" x="957.725" y="-730.8" font-family="Times,serif" font-size="14.00">Stick to using at most ES2015,</text>
<text text-anchor="middle" x="957.725" y="-716.8" font-family="Times,serif" font-size="14.00"> &#160;&#160;&#160;JSX, and object spread operator.</text>
</g>
<!-- can_you_spend_days_on_your_tooling&#45;&gt;stick_to_es2015 -->
<g id="edge28" class="edge">
<title>can_you_spend_days_on_your_tooling&#45;&gt;stick_to_es2015</title>
<path fill="none" stroke="black" d="M983.28,-801.334C977.735,-785.422 971.99,-768.934 967.354,-755.632"/>
<polygon fill="black" stroke="black" points="970.643,-754.434 964.047,-746.143 964.033,-756.738 970.643,-754.434"/>
<text text-anchor="middle" x="980.725" y="-766.8" font-family="Times,serif" font-size="14.00">no</text>
</g>
<!-- stick_to_es2015&#45;&gt;do_you_update_packages_asap -->
<g id="edge29" class="edge">
<title>stick_to_es2015&#45;&gt;do_you_update_packages_asap</title>
<path fill="none" stroke="black" d="M926.266,-709.95C904.596,-697.516 874.882,-680.467 847.504,-664.759"/>
<polygon fill="black" stroke="black" points="849.126,-661.654 838.71,-659.713 845.642,-667.725 849.126,-661.654"/>
</g>
<!-- are_you_still_sad -->
<g id="node23" class="node">
<title>are_you_still_sad</title>
<polygon fill="none" stroke="black" points="876.725,-338 774.387,-320 876.725,-302 979.063,-320 876.725,-338"/>
<text text-anchor="middle" x="876.725" y="-315.8" font-family="Times,serif" font-size="14.00">Are you still sad?</text>
</g>
<!-- give_it_two_months&#45;&gt;are_you_still_sad -->
<g id="edge32" class="edge">
<title>give_it_two_months&#45;&gt;are_you_still_sad</title>
<path fill="none" stroke="black" d="M796.298,-374.895C815.101,-362.061 833.144,-349.745 847.358,-340.044"/>
<polygon fill="black" stroke="black" points="849.4,-342.888 855.687,-334.359 845.454,-337.106 849.4,-342.888"/>
</g>
<!-- consider_updating_react&#45;&gt;are_you_still_sad -->
<g id="edge33" class="edge">
<title>consider_updating_react&#45;&gt;are_you_still_sad</title>
<path fill="none" stroke="black" d="M927.191,-374.708C916.642,-363.272 906.48,-352.256 898.075,-343.145"/>
<polygon fill="black" stroke="black" points="900.528,-340.642 891.175,-335.665 895.383,-345.388 900.528,-340.642"/>
</g>
<!-- rant -->
<g id="node24" class="node">
<title>rant</title>
<polygon fill="none" stroke="black" points="879.442,-252 642.007,-252 642.007,-146 879.442,-146 879.442,-252"/>
<text text-anchor="middle" x="760.725" y="-236.8" font-family="Times,serif" font-size="14.00">Write a constructive blog post</text>
<text text-anchor="middle" x="760.725" y="-222.8" font-family="Times,serif" font-size="14.00"> &#160;&#160;&#160;about the problems you encountered.</text>
<text text-anchor="middle" x="760.725" y="-208.8" font-family="Times,serif" font-size="14.00"> &#160;&#160;&#160;Refrain from personal attacks.</text>
<text text-anchor="middle" x="760.725" y="-194.8" font-family="Times,serif" font-size="14.00"> &#160;&#160;&#160;Be polite. Help the community</text>
<text text-anchor="middle" x="760.725" y="-180.8" font-family="Times,serif" font-size="14.00"> &#160;&#160;&#160;figure out the solutions. Consider</text>
<text text-anchor="middle" x="760.725" y="-166.8" font-family="Times,serif" font-size="14.00"> &#160;&#160;&#160;another stack that better suites</text>
<text text-anchor="middle" x="760.725" y="-152.8" font-family="Times,serif" font-size="14.00"> &#160;&#160;&#160;your needs (e.g. Ember).</text>
</g>
<!-- are_you_still_sad&#45;&gt;rant -->
<g id="edge34" class="edge">
<title>are_you_still_sad&#45;&gt;rant</title>
<path fill="none" stroke="black" d="M861.56,-304.181C850.482,-292.627 834.695,-276.159 818.892,-259.674"/>
<polygon fill="black" stroke="black" points="821.093,-256.913 811.646,-252.116 816.04,-261.757 821.093,-256.913"/>
<text text-anchor="middle" x="848.056" y="-272.8" font-family="Times,serif" font-size="14.00">yes</text>
</g>
<!-- happy -->
<g id="node25" class="node">
<title>happy</title>
<polygon fill="none" stroke="black" points="1025.9,-109 715.548,-109 715.548,-73 1025.9,-73 1025.9,-109"/>
<text text-anchor="middle" x="870.725" y="-93.8" font-family="Times,serif" font-size="14.00">React makes you happy!</text>
<text text-anchor="middle" x="870.725" y="-79.8" font-family="Times,serif" font-size="14.00"> &#160;&#160;&#160;Or, at least, it doesn’t make you that sad anymore.</text>
</g>
<!-- are_you_still_sad&#45;&gt;happy -->
<g id="edge35" class="edge">
<title>are_you_still_sad&#45;&gt;happy</title>
<path fill="none" stroke="black" d="M880.681,-302.5C883.56,-288.832 887.208,-269.316 888.725,-252 892.834,-205.068 896.144,-192.523 888.725,-146 887.28,-136.943 884.577,-127.353 881.697,-118.76"/>
<polygon fill="black" stroke="black" points="884.953,-117.469 878.299,-109.224 878.359,-119.818 884.953,-117.469"/>
<text text-anchor="middle" x="899.725" y="-194.8" font-family="Times,serif" font-size="14.00">no</text>
</g>
<!-- rant&#45;&gt;happy -->
<g id="edge36" class="edge">
<title>rant&#45;&gt;happy</title>
<path fill="none" stroke="black" d="M814.758,-145.949C825.285,-135.614 835.859,-125.232 844.937,-116.318"/>
<polygon fill="black" stroke="black" points="847.494,-118.713 852.177,-109.21 842.59,-113.718 847.494,-118.713"/>
</g>
<!-- share -->
<g id="node26" class="node">
<title>share</title>
<path fill="none" stroke="black" d="M1060.38,-36C1060.38,-36 681.072,-36 681.072,-36 675.072,-36 669.072,-30 669.072,-24 669.072,-24 669.072,-12 669.072,-12 669.072,-6 675.072,-0 681.072,-0 681.072,-0 1060.38,-0 1060.38,-0 1066.38,-0 1072.38,-6 1072.38,-12 1072.38,-12 1072.38,-24 1072.38,-24 1072.38,-30 1066.38,-36 1060.38,-36"/>
<text text-anchor="middle" x="870.725" y="-20.8" font-family="Times,serif" font-size="14.00">Share this flowchart: http://bit.ly/react&#45;makes&#45;you&#45;sad.</text>
<text text-anchor="middle" x="870.725" y="-6.8" font-family="Times,serif" font-size="14.00"> &#160;&#160;&#160;Based on and inspired by https://github.com/petehunt/react&#45;howto.</text>
</g>
<!-- happy&#45;&gt;share -->
<g id="edge37" class="edge">
<title>happy&#45;&gt;share</title>
<path fill="none" stroke="black" d="M870.725,-72.9551C870.725,-64.8828 870.725,-55.1764 870.725,-46.1817"/>
<polygon fill="black" stroke="black" points="874.225,-46.0903 870.725,-36.0904 867.225,-46.0904 874.225,-46.0903"/>
</g>
</g>
</svg>
